<?xml version="1.0" encoding="UTF-8"?>
<!DOCTYPE svg PUBLIC "-//W3C//DTD SVG 1.1//EN" "http://www.w3.org/Graphics/SVG/1.1/DTD/svg11.dtd">
<svg xmlns="http://www.w3.org/2000/svg" version="1.1" viewBox="0 0 81 81" stroke="none">
	<rect width="100%" height="100%" fill="#ffffff"/>
	<path d="M20,20h7v1h-7z M29,20h2v1h-2z M38,20h3v1h-3z M43,20h1v1h-1z M48,20h1v1h-1z M50,20h3v1h-3z M54,20h7v1h-7z M20,21h1v6h-1z M26,21h1v6h-1z M29,21h1v1h-1z M31,21h1v2h-1z M33,21h4v1h-4z M38,21h1v1h-1z M42,21h1v1h-1z M44,21h1v1h-1z M47,21h1v1h-1z M49,21h2v1h-2z M54,21h1v6h-1z M60,21h1v6h-1z M22,22h3v3h-3z M28,22h1v6h-1z M32,22h1v1h-1z M34,22h2v1h-2z M39,22h2v1h-2z M46,22h1v1h-1z M48,22h1v2h-1z M50,22h2v1h-2z M56,22h3v3h-3z M29,23h1v3h-1z M33,23h1v1h-1z M35,23h1v3h-1z M38,23h1v1h-1z M40,23h3v1h-3z M49,23h1v2h-1z M52,23h1v1h-1z M32,24h1v1h-1z M39,24h1v1h-1z M41,24h1v2h-1z M43,24h4v1h-4z M51,24h1v1h-1z M31,25h1v1h-1z M33,25h1v1h-1z M45,25h3v1h-3z M52,25h1v3h-1z M21,26h5v1h-5z M30,26h1v1h-1z M32,26h1v1h-1z M34,26h1v2h-1z M36,26h1v1h-1z M38,26h1v1h-1z M40,26h1v6h-1z M42,26h1v3h-1z M44,26h1v3h-1z M46,26h1v1h-1z M48,26h1v2h-1z M50,26h1v2h-1z M55,26h5v1h-5z M31,27h1v1h-1z M33,27h1v3h-1z M35,27h1v2h-1z M39,27h1v3h-1z M41,27h1v1h-1z M20,28h1v1h-1z M22,28h5v1h-5z M30,28h1v2h-1z M32,28h1v1h-1z M36,28h2v1h-2z M45,28h3v1h-3z M49,28h1v1h-1z M54,28h5v1h-5z M21,29h2v2h-2z M23,29h1v1h-1z M29,29h1v1h-1z M41,29h1v1h-1z M43,29h1v1h-1z M50,29h3v1h-3z M54,29h1v1h-1z M56,29h1v1h-1z M58,29h3v1h-3z M20,30h1v2h-1z M24,30h5v1h-5z M32,30h1v2h-1z M34,30h2v1h-2z M42,30h1v1h-1z M47,30h1v2h-1z M49,30h2v1h-2z M52,30h1v7h-1z M59,30h1v1h-1z M24,31h2v1h-2z M28,31h1v6h-1z M29,31h3v1h-3z M33,31h1v1h-1z M35,31h2v3h-2z M38,31h2v2h-2z M41,31h1v1h-1z M43,31h1v1h-1z M46,31h1v1h-1z M48,31h1v1h-1z M50,31h2v1h-2z M56,31h2v1h-2z M21,32h1v1h-1z M23,32h1v2h-1z M26,32h1v1h-1z M29,32h1v1h-1z M31,32h1v1h-1z M34,32h1v2h-1z M37,32h1v1h-1z M45,32h1v1h-1z M49,32h1v1h-1z M51,32h1v2h-1z M57,32h2v1h-2z M20,33h1v1h-1z M22,33h1v2h-1z M32,33h1v1h-1z M40,33h1v1h-1z M42,33h1v4h-1z M44,33h1v1h-1z M46,33h1v6h-1z M47,33h2v1h-2z M50,33h1v1h-1z M54,33h1v1h-1z M56,33h1v3h-1z M58,33h3v1h-3z M21,34h1v2h-1z M26,34h1v1h-1z M29,34h1v1h-1z M33,34h1v1h-1z M37,34h1v1h-1z M39,34h1v4h-1z M41,34h1v2h-1z M49,34h1v1h-1z M53,34h1v1h-1z M20,35h1v1h-1z M24,35h2v1h-2z M30,35h2v2h-2z M32,35h1v1h-1z M36,35h1v3h-1z M40,35h1v1h-1z M44,35h1v1h-1z M48,35h1v1h-1z M50,35h2v1h-2z M54,35h1v1h-1z M57,35h1v2h-1z M60,35h1v1h-1z M22,36h1v1h-1z M26,36h1v1h-1z M33,36h2v1h-2z M37,36h1v4h-1z M45,36h1v4h-1z M49,36h1v1h-1z M51,36h1v2h-1z M53,36h1v1h-1z M55,36h1v2h-1z M58,36h2v1h-2z M21,37h1v4h-1z M31,37h1v2h-1z M34,37h1v1h-1z M38,37h1v1h-1z M40,37h2v2h-2z M43,37h1v1h-1z M48,37h1v1h-1z M54,37h1v1h-1z M56,37h1v3h-1z M59,37h2v1h-2z M20,38h1v1h-1z M24,38h1v2h-1z M26,38h1v1h-1z M28,38h1v2h-1z M32,38h2v1h-2z M44,38h1v2h-1z M47,38h1v1h-1z M52,38h1v2h-1z M57,38h1v1h-1z M25,39h1v1h-1z M29,39h1v2h-1z M33,39h2v1h-2z M36,39h1v3h-1z M38,39h2v1h-2z M41,39h2v1h-2z M48,39h1v1h-1z M50,39h1v3h-1z M23,40h1v1h-1z M26,40h2v1h-2z M30,40h1v4h-1z M32,40h1v2h-1z M35,40h1v5h-1z M41,40h1v1h-1z M43,40h1v2h-1z M46,40h1v1h-1z M53,40h1v1h-1z M57,40h1v3h-1z M58,40h1v1h-1z M60,40h1v2h-1z M20,41h1v3h-1z M22,41h1v3h-1z M24,41h1v1h-1z M27,41h1v1h-1z M33,41h2v2h-2z M38,41h1v3h-1z M39,41h1v1h-1z M42,41h1v4h-1z M44,41h1v2h-1z M48,41h2v1h-2z M51,41h1v1h-1z M54,41h3v1h-3z M59,41h1v1h-1z M21,42h1v1h-1z M25,42h2v1h-2z M28,42h2v3h-2z M31,42h1v4h-1z M37,42h1v1h-1z M40,42h2v1h-2z M45,42h3v1h-3z M49,42h1v1h-1z M52,42h1v1h-1z M56,42h1v2h-1z M23,43h1v2h-1z M27,43h1v1h-1z M34,43h1v3h-1z M36,43h1v2h-1z M41,43h1v1h-1z M43,43h1v3h-1z M46,43h1v3h-1z M53,43h3v1h-3z M59,43h2v3h-2z M24,44h3v1h-3z M37,44h1v1h-1z M40,44h1v1h-1z M44,44h2v1h-2z M47,44h1v1h-1z M49,44h1v1h-1z M53,44h1v1h-1z M55,44h1v1h-1z M57,44h2v1h-2z M20,45h1v1h-1z M25,45h1v1h-1z M27,45h2v1h-2z M33,45h1v1h-1z M38,45h2v1h-2z M45,45h1v1h-1z M48,45h1v2h-1z M50,45h2v1h-2z M54,45h1v2h-1z M56,45h1v3h-1z M57,45h1v1h-1z M21,46h4v1h-4z M26,46h1v1h-1z M28,46h1v2h-1z M30,46h1v1h-1z M35,46h1v3h-1z M36,46h1v1h-1z M38,46h1v1h-1z M40,46h2v1h-2z M44,46h1v1h-1z M47,46h1v7h-1z M49,46h1v1h-1z M52,46h2v2h-2z M55,46h1v1h-1z M22,47h1v2h-1z M27,47h1v1h-1z M32,47h2v1h-2z M39,47h1v1h-1z M41,47h1v1h-1z M43,47h1v2h-1z M46,47h1v1h-1z M50,47h2v3h-2z M57,47h1v3h-1z M21,48h1v2h-1z M24,48h3v1h-3z M30,48h2v1h-2z M33,48h1v1h-1z M36,48h3v1h-3z M40,48h1v1h-1z M44,48h2v1h-2z M48,48h2v1h-2z M55,48h1v2h-1z M58,48h1v1h-1z M60,48h1v2h-1z M20,49h1v4h-1z M25,49h1v1h-1z M29,49h1v1h-1z M38,49h1v2h-1z M46,49h1v1h-1z M52,49h1v1h-1z M54,49h1v4h-1z M56,49h1v8h-1z M22,50h3v1h-3z M26,50h1v1h-1z M33,50h1v4h-1z M34,50h1v1h-1z M40,50h6v1h-6z M48,50h3v1h-3z M53,50h1v3h-1z M59,50h1v1h-1z M23,51h2v1h-2z M28,51h2v3h-2z M31,51h1v5h-1z M35,51h2v1h-2z M41,51h1v1h-1z M43,51h1v3h-1z M50,51h1v1h-1z M55,51h1v2h-1z M57,51h1v4h-1z M23,52h1v1h-1z M26,52h2v1h-2z M30,52h1v6h-1z M37,52h1v1h-1z M40,52h1v1h-1z M44,52h2v1h-2z M49,52h1v4h-1z M52,52h1v5h-1z M58,52h1v1h-1z M32,53h1v1h-1z M34,53h3v1h-3z M38,53h2v1h-2z M48,53h1v4h-1z M60,53h1v1h-1z M20,54h7v1h-7z M29,54h1v2h-1z M38,54h1v1h-1z M40,54h1v3h-1z M42,54h1v1h-1z M44,54h1v1h-1z M47,54h1v3h-1z M51,54h1v1h-1z M54,54h1v1h-1z M59,54h1v2h-1z M20,55h1v6h-1z M26,55h1v6h-1z M28,55h1v4h-1z M33,55h1v1h-1z M36,55h1v3h-1z M43,55h1v3h-1z M46,55h1v1h-1z M50,55h1v1h-1z M22,56h3v3h-3z M32,56h1v3h-1z M38,56h1v1h-1z M41,56h1v4h-1z M42,56h1v1h-1z M44,56h1v5h-1z M53,56h1v4h-1z M54,56h2v1h-2z M57,56h2v1h-2z M60,56h1v1h-1z M37,57h1v1h-1z M39,57h1v1h-1z M45,57h2v1h-2z M50,57h1v2h-1z M55,57h1v2h-1z M29,58h1v3h-1z M31,58h1v3h-1z M33,58h3v1h-3z M42,58h1v3h-1z M47,58h2v2h-2z M49,58h1v1h-1z M51,58h1v1h-1z M54,58h1v1h-1z M56,58h2v2h-2z M58,58h1v1h-1z M34,59h2v2h-2z M38,59h3v2h-3z M43,59h1v1h-1z M52,59h1v1h-1z M59,59h1v1h-1z M21,60h5v1h-5z M28,60h1v1h-1z M30,60h1v1h-1z M36,60h1v1h-1z M45,60h1v1h-1z M47,60h1v1h-1z M49,60h1v1h-1z M51,60h1v1h-1z M54,60h3v1h-3z M58,60h1v1h-1z" fill="#000000"/>
</svg>
