<?xml version="1.0" encoding="UTF-8"?>
<!DOCTYPE svg PUBLIC "-//W3C//DTD SVG 1.1//EN" "http://www.w3.org/Graphics/SVG/1.1/DTD/svg11.dtd">
<svg xmlns="http://www.w3.org/2000/svg" version="1.1" viewBox="0 0 73 73" stroke="none">
	<rect width="100%" height="100%" fill="#ffffff"/>
	<path d="M20,20h7v1h-7z M30,20h1v1h-1z M32,20h1v1h-1z M36,20h1v1h-1z M39,20h1v1h-1z M42,20h3v1h-3z M46,20h7v1h-7z M20,21h1v6h-1z M26,21h1v6h-1z M31,21h1v2h-1z M35,21h1v1h-1z M38,21h1v1h-1z M40,21h2v2h-2z M44,21h1v1h-1z M46,21h1v6h-1z M52,21h1v6h-1z M22,22h3v3h-3z M28,22h1v6h-1z M29,22h1v1h-1z M32,22h1v2h-1z M34,22h1v1h-1z M36,22h1v1h-1z M43,22h1v1h-1z M48,22h3v3h-3z M38,23h1v1h-1z M42,23h1v2h-1z M31,24h1v2h-1z M33,24h4v1h-4z M40,24h1v1h-1z M43,24h1v1h-1z M30,25h1v3h-1z M33,25h2v1h-2z M38,25h2v1h-2z M41,25h1v1h-1z M21,26h5v1h-5z M32,26h1v1h-1z M34,26h1v1h-1z M36,26h1v2h-1z M38,26h1v1h-1z M40,26h1v3h-1z M42,26h1v1h-1z M44,26h1v1h-1z M47,26h5v1h-5z M39,27h1v3h-1z M41,27h1v1h-1z M20,28h1v1h-1z M22,28h5v1h-5z M32,28h3v1h-3z M37,28h1v4h-1z M38,28h1v1h-1z M46,28h5v1h-5z M24,29h1v2h-1z M27,29h1v3h-1z M29,29h1v5h-1z M30,29h2v1h-2z M33,29h1v3h-1z M36,29h1v4h-1z M41,29h1v3h-1z M43,29h5v1h-5z M49,29h2v1h-2z M52,29h1v1h-1z M22,30h2v1h-2z M25,30h1v4h-1z M26,30h1v1h-1z M30,30h1v1h-1z M32,30h1v4h-1z M34,30h2v1h-2z M45,30h1v3h-1z M48,30h1v3h-1z M50,30h2v1h-2z M21,31h1v4h-1z M35,31h1v6h-1z M38,31h2v1h-2z M44,31h1v2h-1z M46,31h1v1h-1z M49,31h2v1h-2z M52,31h1v3h-1z M20,32h1v1h-1z M22,32h1v1h-1z M26,32h1v1h-1z M28,32h1v2h-1z M30,32h2v1h-2z M34,32h1v1h-1z M39,32h2v1h-2z M42,32h1v1h-1z M47,32h1v1h-1z M49,32h1v1h-1z M51,32h1v3h-1z M24,33h1v1h-1z M27,33h1v1h-1z M33,33h1v1h-1z M38,33h1v4h-1z M43,33h1v1h-1z M46,33h1v1h-1z M26,34h1v1h-1z M30,34h1v2h-1z M34,34h1v1h-1z M36,34h2v1h-2z M40,34h1v1h-1z M42,34h1v1h-1z M48,34h1v3h-1z M50,34h1v2h-1z M20,35h1v1h-1z M22,35h2v2h-2z M24,35h1v1h-1z M27,35h1v1h-1z M29,35h1v1h-1z M32,35h2v1h-2z M41,35h1v1h-1z M45,35h1v1h-1z M49,35h1v3h-1z M26,36h1v1h-1z M31,36h1v2h-1z M33,36h1v1h-1z M36,36h2v1h-2z M40,36h1v1h-1z M43,36h1v2h-1z M47,36h1v2h-1z M52,36h1v2h-1z M20,37h2v1h-2z M23,37h2v1h-2z M27,37h1v2h-1z M29,37h1v1h-1z M32,37h1v5h-1z M34,37h1v2h-1z M36,37h1v1h-1z M39,37h1v1h-1z M42,37h1v5h-1z M44,37h3v1h-3z M50,37h1v3h-1z M20,38h1v1h-1z M25,38h2v1h-2z M30,38h1v2h-1z M33,38h1v2h-1z M35,38h1v1h-1z M38,38h1v1h-1z M40,38h1v1h-1z M44,38h1v1h-1z M48,38h1v3h-1z M21,39h1v1h-1z M23,39h2v1h-2z M29,39h1v1h-1z M41,39h1v1h-1z M43,39h1v3h-1z M45,39h1v2h-1z M49,39h1v3h-1z M52,39h1v1h-1z M20,40h1v5h-1z M22,40h1v1h-1z M26,40h1v1h-1z M28,40h1v3h-1z M34,40h2v1h-2z M38,40h1v1h-1z M29,41h3v1h-3z M35,41h2v1h-2z M40,41h2v1h-2z M44,41h1v1h-1z M46,41h2v2h-2z M50,41h1v3h-1z M52,41h1v1h-1z M22,42h1v1h-1z M26,42h1v1h-1z M30,42h2v1h-2z M37,42h1v1h-1z M39,42h1v4h-1z M41,42h1v2h-1z M51,42h1v2h-1z M25,43h1v1h-1z M27,43h1v2h-1z M29,43h1v2h-1z M31,43h1v1h-1z M33,43h1v3h-1z M36,43h1v6h-1z M38,43h1v2h-1z M40,43h1v2h-1z M42,43h1v1h-1z M45,43h1v2h-1z M48,43h1v7h-1z M49,43h1v1h-1z M23,44h2v1h-2z M26,44h1v1h-1z M28,44h1v2h-1z M30,44h1v3h-1z M32,44h1v1h-1z M37,44h1v4h-1z M44,44h1v5h-1z M46,44h2v1h-2z M31,45h1v2h-1z M41,45h1v1h-1z M50,45h2v3h-2z M52,45h1v1h-1z M20,46h7v1h-7z M32,46h1v1h-1z M34,46h2v1h-2z M43,46h1v1h-1z M46,46h1v1h-1z M20,47h1v6h-1z M26,47h1v6h-1z M28,47h1v4h-1z M29,47h1v1h-1z M38,47h1v1h-1z M40,47h2v1h-2z M22,48h3v3h-3z M30,48h2v1h-2z M33,48h1v5h-1z M34,48h1v1h-1z M42,48h1v3h-1z M45,48h3v1h-3z M49,48h1v4h-1z M51,48h1v2h-1z M29,49h1v4h-1z M31,49h1v1h-1z M35,49h1v4h-1z M38,49h1v1h-1z M47,49h1v4h-1z M52,49h1v1h-1z M32,50h1v2h-1z M36,50h1v1h-1z M44,50h3v1h-3z M50,50h1v2h-1z M30,51h2v2h-2z M38,51h1v2h-1z M40,51h2v1h-2z M45,51h2v1h-2z M48,51h1v2h-1z M21,52h5v1h-5z M28,52h1v1h-1z M37,52h1v1h-1z M40,52h1v1h-1z M43,52h3v1h-3z M51,52h1v1h-1z" fill="#000000"/>
</svg>
